<svg width="25" height="17" viewBox="0 0 25 17" fill="none" xmlns="http://www.w3.org/2000/svg">
<g clip-path="url(#clip0_2_246)">
<path d="M12.21 11.7601C12.08 11.7601 11.94 11.7301 11.81 11.6801L0.6 6.80006C0.23 6.64006 0 6.28006 0 5.88006C0 5.48006 0.24 5.12006 0.6 4.96006L11.81 0.0800586C12.06 -0.0299414 12.35 -0.0299414 12.61 0.0800586L23.81 4.96006C24.18 5.12006 24.41 5.48006 24.41 5.88006C24.41 6.28006 24.18 6.64006 23.81 6.80006L12.61 11.6801C12.48 11.7401 12.35 11.7601 12.21 11.7601ZM3.5 5.88006L12.2 9.67006L20.9 5.88006L12.21 2.09006L3.5 5.88006Z" fill="#333333"/>
<path d="M12.21 16.39C9.18 16.39 6.15 15.48 3.44 13.66C3.16 13.47 3 13.16 3 12.83V7.5C3 6.95 3.45 6.5 4 6.5C4.55 6.5 5 6.95 5 7.5V12.29C9.49 15.08 14.93 15.08 19.42 12.29V7.5C19.42 6.95 19.87 6.5 20.42 6.5C20.97 6.5 21.42 6.95 21.42 7.5V12.83C21.42 13.16 21.25 13.47 20.98 13.66C18.28 15.48 15.24 16.39 12.21 16.39Z" fill="#333333"/>
<path d="M23.96 13.67C23.68 13.67 23.46 13.45 23.46 13.17V5.82996C23.46 5.54996 23.68 5.32996 23.96 5.32996C24.24 5.32996 24.46 5.54996 24.46 5.82996V13.16C24.46 13.44 24.24 13.66 23.96 13.66V13.67Z" fill="#333333"/>
<path d="M23.96 14.17C23.41 14.17 22.96 13.72 22.96 13.17V9.67004C22.96 9.12004 23.41 8.67004 23.96 8.67004C24.51 8.67004 24.96 9.12004 24.96 9.67004V13.17C24.96 13.72 24.51 14.17 23.96 14.17Z" fill="#333333"/>
</g>
<defs>
<clipPath id="clip0_2_246">
<rect width="24.96" height="16.39" fill="white"/>
</clipPath>
</defs>
</svg>
